<?xml version="1.0" encoding="iso-8859-1"?>
<!-- Generator: Adobe Illustrator 16.0.0, SVG Export Plug-In . SVG Version: 6.00 Build 0)  -->
<!DOCTYPE svg PUBLIC "-//W3C//DTD SVG 1.1//EN" "http://www.w3.org/Graphics/SVG/1.1/DTD/svg11.dtd">
<svg version="1.1" id="Capa_1" xmlns="http://www.w3.org/2000/svg" xmlns:xlink="http://www.w3.org/1999/xlink" x="0px" y="0px" width="438.536px" height="438.536px" stroke-width="3" viewBox="50 225 70 70" style="enable-background:new 40 225 100 100;" xml:space="preserve">
<g>
	<path stroke="#EEEEEE" stroke-width="3" d="M105.2,271.2c0,5.9-1.6,10.4-4.8,13.5c-3.2,3.1-7.7,4.6-13.7,4.6c-4.8,0-8.7-1.1-11.7-3.4
		c-3.3-2.6-5.1-6.2-5.2-10.9h1.7c0.2,4.2,1.7,7.4,4.6,9.6c2.6,2,6.1,3,10.4,3c11.2,0,16.8-5.5,16.8-16.4v-13.7h-0.2
		c-0.9,3.8-3,6.9-6.3,9.2c-3.4,2.3-7,3.5-11.1,3.5c-5.9,0-10.5-2.2-13.9-6.5c-3-4-4.6-9-4.6-15.2c0-6.3,1.6-11.5,4.7-15.5
		c3.5-4.4,8.3-6.6,14.3-6.6c4,0,7.5,1.2,10.7,3.7c3.2,2.4,5.2,5.6,6.1,9.4h0.2v-12h1.7V271.2z M103.4,248.6c0-5.5-1.4-10.2-4.2-14
		c-3.2-4.2-7.4-6.4-12.7-6.4c-5.5,0-9.8,2.1-13,6.2c-2.9,3.7-4.3,8.5-4.3,14.2c0,5.6,1.3,10.3,4,13.9c3,4.1,7.2,6.1,12.6,6.1
		c5.5,0,9.8-2,13.1-5.9C101.9,258.9,103.4,254.2,103.4,248.6z" />
</g>
<g>
</g>
<g>
</g>
<g>
</g>
<g>
</g>
<g>
</g>
<g>
</g>
<g>
</g>
<g>
</g>
<g>
</g>
<g>
</g>
<g>
</g>
<g>
</g>
<g>
</g>
<g>
</g>
<g>
</g>
</svg>
