<?xml version="1.0" encoding="iso-8859-1"?>
<!-- Generator: Adobe Illustrator 16.0.0, SVG Export Plug-In . SVG Version: 6.00 Build 0)  -->
<!DOCTYPE svg PUBLIC "-//W3C//DTD SVG 1.1//EN" "http://www.w3.org/Graphics/SVG/1.1/DTD/svg11.dtd">
<svg version="1.1" id="Capa_1" xmlns="http://www.w3.org/2000/svg" xmlns:xlink="http://www.w3.org/1999/xlink" x="0px" y="0px"
	 width="438.536px" height="438.536px" viewBox="43 20 10 57" style="enable-background:new 0 0 438.536 438.536;"
	 xml:space="preserve">
<g>
	<path id="XMLID_7_" class="st0" d="M48,20.5c-15.2,0-27.5,12.3-27.5,27.5S32.8,75.5,48,75.5c15.2,0,27.5-12.3,27.5-27.5
		S63.2,20.5,48,20.5z M59.2,61c-0.4,0-0.7-0.2-1.2-0.4c-4-2.4-9-3.7-14.2-3.7c-2.9,0-5.9,0.4-8.7,1c-0.5,0.1-1,0.3-1.4,0.3
		c-1,0-1.7-0.8-1.7-1.7c0-1.2,0.7-1.7,1.5-1.9c3.4-0.8,6.8-1.2,10.3-1.2c6,0,11.4,1.4,16,4.1c0.7,0.4,1.1,0.8,1.1,1.8
		C60.9,60.2,60.1,61,59.2,61z M62.2,53.7c-0.6,0-1-0.2-1.4-0.5c-4.5-2.7-10.7-4.4-17.5-4.4c-3.5,0-6.5,0.5-9,1.2
		c-0.5,0.1-0.8,0.3-1.3,0.3c-1.2,0-2.1-1-2.1-2.2c0-1.2,0.6-2,1.7-2.3c3.1-0.8,6.2-1.5,10.8-1.5c7.2,0,14.2,1.8,19.6,5.1
		c0.9,0.5,1.3,1.2,1.3,2.2C64.3,52.7,63.3,53.7,62.2,53.7z M65.6,45.2c-0.6,0-0.9-0.1-1.4-0.4c-5-3-12.7-4.6-20.2-4.6
		c-3.7,0-7.5,0.4-11,1.3c-0.4,0.1-0.9,0.3-1.4,0.3c-1.5,0-2.6-1.2-2.6-2.6c0-1.5,0.9-2.3,1.9-2.6c3.9-1.2,8.3-1.7,13.1-1.7
		c8.1,0,16.6,1.7,22.8,5.3c0.8,0.5,1.4,1.2,1.4,2.5C68.2,44.2,67,45.2,65.6,45.2z"/>

</g>
<g>
</g>
<g>
</g>
<g>
</g>
<g>
</g>
<g>
</g>
<g>
</g>
<g>
</g>
<g>
</g>
<g>
</g>
<g>
</g>
<g>
</g>
<g>
</g>
<g>
</g>
<g>
</g>
<g>
</g>
</svg>
